<svg xmlns="http://www.w3.org/2000/svg" viewBox="0 0 488 488" width="19" height="19" enable-background="new 0 0 488 488"><g fill="#5ed688"><path d="M407.15 326.3c-53.8-20.5-86-41.6-86-41.6l-41.5 131.1-5.7 17.8-18.6-52.6c42.7-59.5-3.2-62.3-11.2-62.4h-.4c-7.9.1-53.8 2.9-11.2 62.4l-18.6 52.6-5.7-17.8-41.5-131.1s-32.2 21-86 41.6c-59.2 21.5-55.5 70.3-56.7 161.7h439.9c-1.3-91.4 2.4-140.2-56.8-161.7zM243.35 273.3c75.3 0 136.6-61.3 136.6-136.6s-61.2-136.7-136.6-136.7c-75.3 0-136.6 61.3-136.6 136.6s61.3 136.7 136.6 136.7zm40.3-43.2c8.3-11.6 16.4-26.2 21.9-44.2h26.9c-10.9 19.7-28.1 35.3-48.8 44.2zm57.4-122.3c2.7 9.2 4.2 18.9 4.2 28.9s-1.5 19.7-4.2 28.9h-30.7c1.5-9 2.4-18.6 2.4-28.9 0-10.3-.9-19.9-2.4-28.9h30.7zm-8.6-20.5h-26.9c-5.5-17.9-13.5-32.6-21.9-44.2 20.7 9 37.9 24.6 48.8 44.2zm-78.9-48.1c9.9 10 22.2 25.8 30.3 48h-30.3v-48zm0 68.6h35.9c1.7 8.9 2.8 18.5 2.8 28.9s-1 20-2.7 28.9h-36v-57.8zm0 78.2h30.4c-8.1 22.4-20.5 38.3-30.4 48.2v-48.2zm-99.2 0h26.9c5.5 17.9 13.5 32.6 21.9 44.2-20.8-9-38-24.6-48.8-44.2zm78.8 48c-9.9-10-22.2-25.8-30.3-48h30.3v48zm0-68.5h-35.9c-1.7-8.9-2.8-18.5-2.8-28.9s1-20 2.7-28.9h36v57.8zm0-78.2h-30.4c8-22.4 20.5-38.3 30.4-48.2v48.2zm-30.1-44.2c-8.3 11.6-16.4 26.2-21.9 44.2h-26.9c10.9-19.6 28.1-35.2 48.8-44.2zm-61.5 93.5c0-10 1.5-19.7 4.2-28.9h30.7c-1.5 9-2.4 18.6-2.4 28.9s.9 19.9 2.4 28.9h-30.7c-2.8-9.1-4.2-18.8-4.2-28.9z"/></g></svg>