<svg xmlns="http://www.w3.org/2000/svg" viewBox="0 0 413.196 413.196" width="512" height="512" enable-background="new 0 0 413.196 413.196"><g fill="#ffffff"><path d="M349.607 381.402h-317.825v-317.825h234.428l19.832-31.782h-254.26c-17.543-.001-31.782 14.238-31.782 31.782v317.825c0 17.544 14.239 31.782 31.782 31.782h317.825c17.544 0 31.782-14.239 31.782-31.782v-209.86l-31.782 50.947v158.913zM403.129 3.635c-3.782-2.447-8.009-3.623-12.173-3.623-7.246 0-14.334 3.56-18.625 10.075l-172.77 249.238-66.839-76.278c-9.058-8.359-23.106-7.818-31.465 1.208-8.359 9.026-7.787 23.106 1.24 31.433l80.346 91.692 1.939 2.225 2.034 2.32.826.509 1.684 1.684 4.354 2.002.985.477 6.833 1.176.286-.064c6.039.032 12.046-2.193 16.463-6.992l1.812-2.924.095-.127 189.427-273.265c6.706-10.234 3.814-24.028-6.452-30.766z"/></g></svg>