<svg xmlns="http://www.w3.org/2000/svg" viewBox="0 0 480 480" width="512" height="512" enable-background="new 0 0 480 480"><path fill="#5ed688" d="M95.985 448h16v16h-16zM263.985 448h16v16h-16zM175.985 424h16v16h-16zM287.985 384h16v16h-16zM279.985 0h-80c-4.418 0-8 3.582-8 8v112c0 4.418 3.582 8 8 8h80c4.418 0 8-3.582 8-8v-112c0-4.418-3.582-8-8-8zm-24 80h-32v-16h32v16zm0-32h-32v-16h32v16zM167.985 0h-80c-4.418 0-8 3.582-8 8v112c0 4.418 3.582 8 8 8h80c4.418 0 8-3.582 8-8v-112c0-4.418-3.582-8-8-8zm-24 80h-32v-16h32v16zm0-32h-32v-16h32v16zM391.985 0h-80c-4.418 0-8 3.582-8 8v112c0 4.418 3.582 8 8 8h80c4.418 0 8-3.582 8-8v-112c0-4.418-3.582-8-8-8zm-24 80h-32v-16h32v16zm0-32h-32v-16h32v16zM397.547 154.21c-1.498-1.428-3.492-2.22-5.562-2.21h-304c-4.418-.006-8.005 3.57-8.011 7.989-.003 2.044.777 4.012 2.179 5.499l125.832 133.712v84.8c.002 3.103 1.798 5.924 4.608 7.24 1.06.502 2.219.762 3.392.76 1.872-.001 3.685-.655 5.128-1.848l48-40c1.823-1.523 2.875-3.777 2.872-6.152v-44.8l125.832-133.68c3.048-3.198 2.927-8.262-.27-11.31zm-152.762 92.19c-2.844 2.133-6.756 2.133-9.6 0l-32-24 9.6-12.8 19.2 14.4v-40h16v40l19.2-14.4 9.6 12.8-32 24zM335.985 344h16v16h-16zM335.985 464h16v16h-16zM143.985 368h16v16h-16z"/></svg>