<svg xmlns="http://www.w3.org/2000/svg" viewBox="0 0 512 512" width="19" height="19"><path d="M492 .103h-472c-11.046 0-20 8.954-20 20 0 77.49 22.928 145.332 72.155 213.502 30.712 42.531 85.808 73.844 113.845 87.866v121.426c0 7.633 4.346 14.601 11.2 17.96l100 49c2.784 1.364 5.795 2.04 8.799 2.04 3.684 0 7.357-1.017 10.584-3.029 5.857-3.653 9.417-10.068 9.417-16.971v-82.425c0-11.046-8.954-20-20-20s-20 8.954-20 20v50.353l-60-29.4v-121.528c0-7.813-4.55-14.911-11.65-18.173-37.338-17.156-85.782-47.322-109.766-80.536-39.735-55.025-60.326-109.548-63.987-170.085h430.806c-3.661 60.536-24.252 115.06-63.987 170.085-25.348 35.103-73.046 65.879-109.072 80.807-10.204 4.229-15.049 15.928-10.82 26.133 4.228 10.204 15.927 15.049 26.133 10.82 38.221-15.838 94.204-50.049 126.188-94.343 49.227-68.17 72.155-136.012 72.155-213.502 0-11.046-8.954-20-20-20z" fill="#5ed688"/></svg>