<svg xmlns="http://www.w3.org/2000/svg" width="512" height="512" viewBox="0 0 47.001 47.001"><g fill="#5ed688"><path d="M23.501 7.231c-7.883.002-14.296 6.204-14.296 13.824 0 4.946 2.007 7.888 3.485 10.056.909 1.334 1.424 2.128 1.424 2.927 0 1.793.961 3.483 2.669 4.75.043 1.063.2 3.659.2 3.659v.003c.028.737.416 2.248 2.956 3.092.299.44.692.831 1.168 1.149.298.201.65.31 1.01.31h2.768c.36 0 .711-.106 1.01-.31.477-.319.871-.709 1.168-1.149 2.563-.853 2.936-2.381 2.957-3.097 0 0 .156-2.592.199-3.656 1.708-1.268 2.67-2.957 2.67-4.75 0-.799.514-1.594 1.432-2.938 1.467-2.15 3.478-5.095 3.478-10.047-.001-7.622-6.415-13.823-14.298-13.823zm7.824 21.844c-1.056 1.548-2.052 3.01-2.052 4.963 0 .858-.776 1.549-1.354 1.948h-8.835c-.578-.398-1.354-1.09-1.354-1.948 0-1.953-.997-3.415-2.065-4.981-1.333-1.955-2.845-4.172-2.845-8.001 0-5.627 4.792-10.207 10.682-10.209 5.891 0 10.682 4.579 10.682 10.207 0 3.837-1.515 6.051-2.859 8.021zM23.501 4.519c.499 0 .903-.404.903-.904v-2.711c0-.499-.404-.904-.903-.904s-.904.405-.904.904v2.711c0 .5.405.904.904.904zM13.898 6.431c.168.29.471.452.784.452.153 0 .309-.039.451-.121.433-.25.581-.802.331-1.235l-1.356-2.348c-.25-.433-.802-.581-1.235-.331-.432.25-.58.802-.331 1.235l1.356 2.348zM8.677 11.652l-2.348-1.355c-.433-.25-.985-.101-1.235.331-.249.432-.101.985.331 1.235l2.348 1.355c.142.082.298.121.451.121.313 0 .616-.162.784-.452.249-.432.101-.985-.331-1.235zM6.765 21.255c0-.499-.405-.904-.904-.904h-2.711c-.499 0-.904.405-.904.904s.405.904.904.904h2.711c.499 0 .904-.405.904-.904zM7.773 29.292l-2.349 1.354c-.432.25-.581.803-.332 1.234.167.291.472.452.784.452.153 0 .309-.039.451-.121l2.348-1.354c.433-.25.581-.803.332-1.234-.249-.434-.801-.581-1.234-.331zM41.578 30.648l-2.348-1.356c-.434-.25-.985-.103-1.235.33s-.103.985.33 1.235l2.348 1.355c.144.083.298.121.451.121.313 0 .616-.162.784-.451.248-.431.102-.986-.33-1.234zM43.852 20.352l-2.709-.001c-.5 0-.904.405-.904.903 0 .5.404.904.902.904l2.711.001c.498 0 .903-.405.903-.903 0-.499-.403-.904-.903-.904zM38.777 13.338c.154 0 .31-.039.451-.121l2.349-1.354c.433-.249.581-.802.332-1.234-.25-.433-.804-.581-1.235-.331l-2.348 1.354c-.434.25-.581.803-.332 1.234.168.29.472.452.783.452zM31.869 6.76c.142.083.297.122.451.122.312 0 .615-.162.783-.452l1.354-2.347c.25-.432.103-.985-.33-1.234-.433-.251-.985-.103-1.235.331l-1.354 2.347c-.249.431-.1.984.331 1.233zM22.289 26.714c.109.8.496 1.021 1.212 1.021.715 0 1.103-.221 1.213-1.021l.854-6.447c.054-.44.108-.881.108-1.294v-3.196c0-1.405-.799-2.122-2.176-2.122-1.378 0-2.177.716-2.177 2.122v3.196c0 .413.055.854.11 1.294l.856 6.447zM23.501 29.523c-1.241 0-2.26 1.02-2.26 2.26s1.02 2.259 2.26 2.259 2.259-1.019 2.259-2.259c.001-1.24-1.019-2.26-2.259-2.26z"/></g></svg>
