<svg xmlns="http://www.w3.org/2000/svg" viewBox="0 0 320 320" width="512" height="512" enable-background="new 0 0 320 320"><path d="M292.697 19.995h-265.394c-15.08 0-27.303 12.224-27.303 27.304v163.822c0 15.079 12.223 27.304 27.303 27.304h106.487v24.7h-21.544c-10.185 0-18.439 8.255-18.439 18.44 0 10.184 8.255 18.44 18.439 18.44h95.508c10.186 0 18.439-8.256 18.439-18.44 0-10.185-8.254-18.44-18.439-18.44h-21.544v-24.7h106.487c15.08 0 27.303-12.225 27.303-27.304v-163.822c0-15.08-12.223-27.304-27.303-27.304zm-4.369 186.757h-256.656v-155.085h256.656v155.085zM131.135 159.999c-1.588 0-3.18-.53-4.494-1.622l-27.129-22.517c-1.613-1.34-2.545-3.323-2.545-5.418 0-2.093.932-4.078 2.545-5.416l27.129-22.517c2.991-2.483 7.428-2.07 9.912.921 2.484 2.992 2.072 7.431-.92 9.913l-20.603 17.099 20.603 17.102c2.992 2.483 3.404 6.921.92 9.914-1.393 1.676-3.399 2.541-5.418 2.541zM188.867 159.999c-2.02 0-4.027-.865-5.42-2.542-2.483-2.993-2.072-7.431.92-9.914l20.602-17.102-20.602-17.099c-2.992-2.483-3.403-6.922-.92-9.913 2.483-2.991 6.922-3.404 9.913-.921l27.127 22.517c1.614 1.338 2.546 3.323 2.546 5.416 0 2.095-.932 4.078-2.546 5.418l-27.127 22.517c-1.315 1.092-2.91 1.623-4.493 1.623zM147.072 182.146c-.648 0-1.307-.09-1.961-.279-3.734-1.081-5.885-4.983-4.803-8.72l25.859-89.324c1.082-3.734 4.984-5.884 8.721-4.805 3.734 1.083 5.885 4.985 4.805 8.722l-25.861 89.324c-.894 3.081-3.705 5.082-6.76 5.082z" fill="#5ed688"/></svg>
