<svg xmlns="http://www.w3.org/2000/svg">
  <symbol id="facebook" viewBox="0 0 96.124 96.123">
    <path d="M72.089.02l-12.465-.02c-14.004 0-23.054 9.285-23.054 23.656v10.907h-12.533c-1.083 0-1.96.878-1.96 1.961v15.803c0 1.083.878 1.96 1.96 1.96h12.533v39.876c0 1.083.877 1.96 1.96 1.96h16.352c1.083 0 1.96-.878 1.96-1.96v-39.876h14.654c1.083 0 1.96-.877 1.96-1.96l.006-15.803c0-.52-.207-1.018-.574-1.386-.367-.368-.867-.575-1.387-.575h-14.659v-9.246c0-4.444 1.059-6.7 6.848-6.7l8.397-.003c1.082 0 1.959-.878 1.959-1.96v-14.674c0-1.081-.876-1.958-1.957-1.96z"/>
  </symbol>
  <symbol id="instagramm" viewBox="0 0 438.536 438.536">
    <path d="M421.981 16.562c-11.04-11.043-24.27-16.562-39.683-16.562h-326.05c-15.418 0-28.644 5.521-39.687 16.562-11.041 11.038-16.56 24.266-16.56 39.681v326.047c0 15.413 5.518 28.644 16.56 39.683 11.043 11.04 24.272 16.563 39.687 16.563h326.046c15.41 0 28.644-5.523 39.684-16.563 11.043-11.039 16.557-24.27 16.557-39.683v-326.047c-.001-15.418-5.514-28.639-16.554-39.681zm-264.519 141.463c17.224-16.652 37.924-24.982 62.097-24.982 24.36 0 45.153 8.33 62.381 24.982 17.228 16.655 25.837 36.785 25.837 60.386 0 23.598-8.609 43.729-25.837 60.379-17.228 16.659-38.014 24.988-62.381 24.988-24.172 0-44.87-8.336-62.097-24.988-17.228-16.652-25.841-36.781-25.841-60.379 0-23.601 8.613-43.73 25.841-60.386zm231.403 212.564c0 4.945-1.718 9.083-5.141 12.416-3.433 3.33-7.519 4.996-12.282 4.996h-305.2c-4.948 0-9.091-1.666-12.419-4.996-3.333-3.326-4.998-7.471-4.998-12.416v-185.014h40.255c-3.805 11.993-5.708 24.462-5.708 37.402 0 36.553 13.322 67.715 39.969 93.511 26.65 25.786 58.721 38.685 96.217 38.685 24.744 0 47.583-5.903 68.527-17.703 20.937-11.807 37.486-27.839 49.676-48.112 12.183-20.272 18.274-42.4 18.274-66.38 0-12.94-1.91-25.406-5.715-37.402h38.547v185.014h-.002zm0-254.963c0 5.52-1.903 10.184-5.716 13.99-3.805 3.809-8.466 5.711-13.989 5.711h-49.676c-5.517 0-10.185-1.903-13.99-5.711-3.806-3.806-5.708-8.47-5.708-13.99v-47.104c0-5.33 1.902-9.945 5.708-13.848 3.806-3.901 8.474-5.854 13.99-5.854h49.676c5.523 0 10.185 1.952 13.989 5.854 3.812 3.903 5.716 8.518 5.716 13.848v47.104z"/>
  </symbol>
  <symbol id="vkontakte" viewBox="0 0 532.337 532.337">
    <path d="M471.998 241.286c7.57-9.786 13.58-17.638 18.018-23.562 31.965-42.498 45.82-69.646 41.574-81.482l-1.666-2.772c-1.107-1.665-3.977-3.194-8.592-4.578-4.621-1.383-10.533-1.604-17.736-.691l-79.822.563c-1.848-.184-3.697-.141-5.545.128-1.848.281-3.047.563-3.605.832l-1.383.692-1.107.832c-.924.551-1.939 1.524-3.047 2.914-1.109 1.389-2.039 2.999-2.773 4.853-8.684 22.356-18.568 43.146-29.656 62.363-6.838 11.457-13.123 21.396-18.844 29.792-5.729 8.415-10.533 14.603-14.414 18.568-3.879 3.972-7.393 7.166-10.531 9.56-3.146 2.411-5.545 3.421-7.203 3.054-1.666-.367-3.238-.734-4.713-1.114-2.588-1.658-4.67-3.917-6.236-6.787-1.572-2.857-2.631-6.463-3.189-10.808-.551-4.339-.881-8.084-.967-11.23-.098-3.139-.049-7.57.141-13.305.184-5.729.275-9.602.275-11.64 0-7.014.141-14.639.418-22.864.275-8.219.508-14.737.691-19.542.184-4.798.275-9.884.275-15.245 0-5.349-.324-9.56-.975-12.613-.648-3.042-1.621-5.998-2.906-8.868-1.297-2.858-3.189-5.08-5.686-6.646-2.496-1.573-5.588-2.815-9.283-3.746-9.799-2.222-22.271-3.409-37.418-3.604-34.37-.355-56.451 1.86-66.243 6.658-3.88 2.038-7.393 4.804-10.532 8.317-3.329 4.07-3.788 6.291-1.383 6.646 11.089 1.665 18.936 5.643 23.556 11.922l1.665 3.323c1.291 2.411 2.583 6.659 3.88 12.754 1.292 6.096 2.124 12.84 2.497 20.233.924 13.488.924 25.031 0 34.646-.924 9.614-1.799 17.093-2.631 22.442-.833 5.361-2.081 9.7-3.74 13.023-1.665 3.335-2.772 5.367-3.329 6.107-.557.734-1.016 1.199-1.383 1.384-2.405.918-4.896 1.383-7.484 1.383-2.589 0-5.729-1.298-9.425-3.887-3.697-2.576-7.534-6.138-11.5-10.667-3.978-4.522-8.452-10.856-13.446-18.99-4.988-8.121-10.166-17.736-15.521-28.819l-4.431-8.042c-2.772-5.165-6.561-12.699-11.365-22.583s-9.058-19.443-12.748-28.69c-1.481-3.874-3.697-6.83-6.652-8.868l-1.383-.832c-.924-.735-2.405-1.524-4.437-2.351-2.038-.832-4.155-1.432-6.377-1.805l-75.943.551c-7.76 0-13.023 1.763-15.795 5.275l-1.108 1.659c-.56.93-.835 2.411-.835 4.437 0 2.038.557 4.529 1.665 7.479 11.089 26.059 23.146 51.188 36.169 75.386 13.03 24.211 24.346 43.709 33.954 58.489 9.608 14.792 19.4 28.733 29.382 41.854 9.982 13.121 16.585 21.523 19.816 25.214 3.231 3.703 5.771 6.476 7.62 8.317l6.928 6.658c4.431 4.432 10.949 9.743 19.542 15.937 8.592 6.193 18.103 12.289 28.55 18.287 10.435 6.01 22.589 10.899 36.444 14.694 13.856 3.794 27.344 5.317 40.465 4.571h31.874c6.469-.551 11.363-2.576 14.688-6.096l1.107-1.383c.734-1.102 1.432-2.815 2.08-5.123.643-2.307.975-4.853.975-7.619-.191-7.943.416-15.116 1.799-21.481 1.383-6.377 2.955-11.175 4.713-14.418 1.756-3.226 3.738-5.955 5.959-8.177 2.217-2.222 3.783-3.55 4.713-4.015.924-.453 1.666-.777 2.217-.973 4.43-1.476 9.65-.043 15.66 4.296 6.004 4.352 11.641 9.7 16.91 16.077 5.262 6.377 11.59 13.531 18.984 21.481 7.387 7.943 13.855 13.855 19.4 17.735l5.545 3.336c3.695 2.209 8.494 4.241 14.412 6.096 5.912 1.842 11.09 2.307 15.52 1.383l70.955-1.114c7.02 0 12.473-1.15 16.354-3.464 3.879-2.295 6.188-4.853 6.928-7.619.734-2.772.783-5.899.141-9.419-.648-3.507-1.297-5.955-1.939-7.338-.648-1.383-1.25-2.546-1.807-3.464-9.24-16.628-26.885-37.051-52.938-61.255l-.557-.551-.275-.281-.275-.27h-.278c-11.83-11.273-19.309-18.85-22.449-22.736-5.727-7.38-7.025-14.865-3.879-22.441 2.203-5.745 10.514-17.85 24.926-36.333z"/>
  </symbol>
  <symbol id="conv" viewBox="0 0 512 512"><path d="M492 .103h-472c-11.046 0-20 8.954-20 20 0 77.49 22.928 145.332 72.155 213.502 30.712 42.531 85.808 73.844 113.845 87.866v121.426c0 7.633 4.346 14.601 11.2 17.96l100 49c2.784 1.364 5.795 2.04 8.799 2.04 3.684 0 7.357-1.017 10.584-3.029 5.857-3.653 9.417-10.068 9.417-16.971v-82.425c0-11.046-8.954-20-20-20s-20 8.954-20 20v50.353l-60-29.4v-121.528c0-7.813-4.55-14.911-11.65-18.173-37.338-17.156-85.782-47.322-109.766-80.536-39.735-55.025-60.326-109.548-63.987-170.085h430.806c-3.661 60.536-24.252 115.06-63.987 170.085-25.348 35.103-73.046 65.879-109.072 80.807-10.204 4.229-15.049 15.928-10.82 26.133 4.228 10.204 15.927 15.049 26.133 10.82 38.221-15.838 94.204-50.049 126.188-94.343 49.227-68.17 72.155-136.012 72.155-213.502 0-11.046-8.954-20-20-20z"/></symbol>
  <symbol id="design" viewBox="0 0 512 512"><path d="M472.208 201.712c9.271-9.037 12.544-22.3 8.544-34.613-4.001-12.313-14.445-21.118-27.257-22.979l-112.03-16.279c-2.199-.319-4.1-1.7-5.084-3.694l-50.101-101.515c-5.729-11.61-17.331-18.822-30.278-18.822s-24.549 7.212-30.278 18.822l-50.101 101.516c-.985 1.993-2.885 3.374-5.085 3.694l-112.028 16.278c-12.812 1.861-23.255 10.666-27.257 22.979-4.002 12.313-.728 25.576 8.544 34.613l81.065 79.019c1.591 1.552 2.318 3.787 1.942 5.978l-19.137 111.576c-2.188 12.761 2.958 25.414 13.432 33.024 10.474 7.612 24.102 8.595 35.56 2.572l100.201-52.679c1.968-1.035 4.317-1.035 6.286 0l100.202 52.679c4.984 2.62 10.377 3.915 15.744 3.914 6.97 0 13.896-2.184 19.813-6.487 10.474-7.611 15.621-20.265 13.432-33.024l-19.137-111.576c-.375-2.191.351-4.426 1.942-5.978l81.066-79.018zm-109.629 89.564l19.137 111.578c.64 3.734-1.665 5.863-2.686 6.604-1.022.74-3.76 2.277-7.112.513l-100.202-52.679c-4.919-2.585-10.315-3.879-15.712-3.879s-10.794 1.294-15.712 3.878l-100.201 52.678c-3.354 1.763-6.091.228-7.112-.513s-3.327-2.87-2.686-6.604l19.137-111.576c1.879-10.955-1.75-22.127-9.711-29.886l-81.065-79.019c-2.713-2.646-2.099-5.723-1.708-6.923.389-1.201 1.702-4.052 5.451-4.596l112.027-16.279c10.999-1.598 20.504-8.502 25.424-18.471l50.101-101.516c1.677-3.397 4.793-3.764 6.056-3.764 1.261 0 4.377.366 6.055 3.764v.001l50.101 101.516c4.919 9.969 14.423 16.873 25.422 18.471l112.029 16.279c3.749.544 5.061 3.395 5.451 4.596.39 1.201 1.005 4.279-1.709 6.923l-81.065 79.019c-7.96 7.758-11.589 18.93-9.71 29.885zM413.783 22.625c-6.036-4.384-14.481-3.046-18.865 2.988l-14.337 19.732c-4.384 6.034-3.047 14.481 2.988 18.865 2.399 1.741 5.176 2.58 7.928 2.58 4.177 0 8.295-1.931 10.937-5.567l14.337-19.732c4.384-6.035 3.047-14.482-2.988-18.866zM131.36 45.265l-14.337-19.732c-4.383-6.032-12.829-7.37-18.865-2.988-6.034 4.384-7.372 12.831-2.988 18.865l14.337 19.732c2.643 3.639 6.761 5.569 10.939 5.569 2.753 0 5.531-.839 7.927-2.581 6.034-4.383 7.372-12.83 2.987-18.865zM49.552 306.829c-2.305-7.093-9.924-10.976-17.019-8.671l-23.197 7.538c-7.095 2.305-10.976 9.926-8.671 17.019 1.854 5.709 7.149 9.337 12.842 9.337 1.383 0 2.79-.215 4.177-.666l23.197-7.538c7.094-2.305 10.976-9.924 8.671-17.019zM256.005 456.786c-7.459 0-13.506 6.047-13.506 13.506v24.392c0 7.459 6.047 13.506 13.506 13.506 7.459 0 13.506-6.047 13.506-13.506v-24.392c0-7.46-6.046-13.506-13.506-13.506zM502.664 305.715l-23.197-7.538c-7.092-2.303-14.714 1.577-17.019 8.672-2.305 7.095 1.576 14.714 8.671 17.019l23.197 7.538c1.387.45 2.793.664 4.176.664 5.694 0 10.989-3.629 12.843-9.337 2.305-7.094-1.577-14.713-8.671-17.018z"/></symbol>
  <symbol id="tech" viewBox="0 0 512 512"><path d="M255.985 59.99c-8.284 0-15 6.716-15 15s6.716 15 15 15c49.634 0 90.015 40.374 90.015 90 0 8.284 6.716 15 15 15s15-6.716 15-15c0-66.168-53.838-120-120.015-120zM217.335 4.03c-67.77 14.161-122.72 68.585-137.179 136.776-12.209 57.582 2.836 115.392 41.277 158.607 18.791 21.123 29.567 49.006 29.567 76.577v30c0 19.96 13.067 36.917 31.093 42.79 5.928 35.025 36.328 63.209 73.907 63.209 37.569 0 67.977-28.175 73.907-63.209 18.026-5.873 31.093-22.83 31.093-42.791v-30c0-27.625 10.812-55.173 30.442-77.569 28.734-32.78 44.558-74.84 44.558-118.43 0-113.565-103.949-199.926-218.665-175.96zm38.665 477.96c-19.282 0-36.188-13.268-42.431-31.1h84.861c-6.242 17.832-23.148 31.1-42.43 31.1zm75-76c0 8.271-6.729 15-15 15h-120c-8.271 0-15-6.729-15-15v-15h150v15zm37.882-127.343c-20.92 23.867-33.791 52.647-37.057 82.343h-151.647c-3.262-29.712-16.1-58.775-36.328-81.516-32.038-36.016-44.557-84.291-34.346-132.445 11.919-56.214 57.719-101.879 113.968-113.632 96.024-20.067 182.528 52.045 182.528 146.593 0 36.312-13.182 71.349-37.118 98.657zM45 179.99h-30c-8.284 0-15 6.716-15 15s6.716 15 15 15h30c8.284 0 15-6.716 15-15s-6.716-15-15-15zM51.213 104.99l-21.213-21.213c-5.857-5.858-15.355-5.858-21.213 0-5.858 5.858-5.858 15.355 0 21.213l21.213 21.213c5.857 5.858 15.355 5.859 21.213 0 5.858-5.858 5.858-15.355 0-21.213zM51.213 263.777c-5.858-5.858-15.356-5.858-21.213 0l-21.213 21.213c-5.858 5.858-5.858 15.355 0 21.213 5.857 5.858 15.355 5.859 21.213 0l21.213-21.213c5.858-5.858 5.858-15.355 0-21.213zM497 179.99h-30c-8.284 0-15 6.716-15 15s6.716 15 15 15h30c8.284 0 15-6.716 15-15s-6.716-15-15-15zM503.213 83.777c-5.857-5.858-15.355-5.858-21.213 0l-21.213 21.213c-5.858 5.858-5.858 15.355 0 21.213 5.857 5.857 15.355 5.858 21.213 0l21.213-21.213c5.858-5.858 5.858-15.355 0-21.213zM503.213 284.99l-21.213-21.213c-5.857-5.858-15.355-5.858-21.213 0-5.858 5.858-5.858 15.355 0 21.213l21.213 21.213c5.857 5.857 15.355 5.858 21.213 0 5.858-5.858 5.858-15.355 0-21.213z"/></symbol>
  <symbol id="point" viewBox="0 0 512 512"><path d="M426.667,192c-7.875,0-15.26,2.146-21.604,5.885C402.677,176.594,384.573,160,362.667,160    c-10.417,0-19.99,3.771-27.427,10.052c-7.469-12.406-21.063-20.719-36.573-20.719c-7.76,0-15.052,2.083-21.333,5.729V42.667    C277.333,19.135,258.198,0,234.667,0S192,19.135,192,42.667v285.479c0,5.375-3.542,8.135-5.063,9.073s-5.615,2.865-10.375,0.469    l-68.5-34.25c-6.24-3.125-13.229-4.771-20.208-4.771c-24.917,0-45.187,20.271-45.187,45.188V352c0,2.958,1.229,5.781,3.385,7.802    l123.115,114.906C194.937,498.75,228.542,512,263.781,512h66.885c76.458,0,138.667-62.208,138.667-138.667V234.667    C469.333,211.135,450.198,192,426.667,192z M448,373.333c0,64.698-52.635,117.333-117.333,117.333h-66.885    c-29.813,0-58.25-11.208-80.052-31.563L64,347.365v-3.51C64,330.698,74.698,320,87.854,320c3.677,0,7.375,0.875,10.667,2.521    l68.5,34.25c9.99,5.01,21.635,4.458,31.135-1.396c9.5-5.875,15.177-16.052,15.177-27.229V42.667    c0-11.76,9.573-21.333,21.333-21.333c11.76,0,21.333,9.573,21.333,21.333v160c0,5.896,4.771,10.667,10.667,10.667    c5.896,0,10.667-4.771,10.667-10.667V192c0-11.76,9.573-21.333,21.333-21.333c11.76,0,21.333,9.573,21.333,21.333v10.667    c0,0.021,0,0.042,0,0.063v0.01c0.042,5.854,4.802,10.594,10.667,10.594c5.896,0,10.667-4.771,10.667-10.667V202.5    c0.083-11.677,9.646-21.167,21.333-21.167c11.76,0,21.333,9.573,21.333,21.333v32c0,5.896,4.771,10.667,10.667,10.667    s10.667-4.771,10.667-10.667c0-11.76,9.573-21.333,21.333-21.333S448,222.906,448,234.667V373.333z"/></symbol>
  <symbol id="logo" viewBox="0 0 291.76 168.4"><title>logo</title><g id="_2"><path class="cls-1" d="M365 382.13c4.5-5.46 7.51-11.94 7.41-19.48a43.93 43.93 0 0 0-43.93-43.93h-86.26a43.93 43.93 0 0 0 43.93 43.93h45.39a9.11 9.11 0 0 1 8.65 6.2v.13a9.17 9.17 0 0 1-8.75 12h-62.78a43.93 43.93 0 0 0 43.93 43.93h46.57a9.15 9.15 0 0 1 0 18.3h-57a43.93 43.93 0 0 0 43.84 43.91h19.42a33.35 33.35 0 0 0 33.35-33.35v-33.77h-.28a44 44 0 0 0-33.49-37.87zM432.36 318.72h-33.53a32.68 32.68 0 0 0 32.68 32.68h18.49v-15.09a17.6 17.6 0 0 0-17.64-17.59zM438.75 362.31h-6.14a32.68 32.68 0 0 0-32.67 32.69h17.34v92.13h32.72v-124.82h-11.2zM504.1 454.44v-60.8a30.12 30.12 0 0 0 21.18-28.76v-2.57h-21.18v-43.59h-32.67v43.59h-7.94v32.69h7.94v92.13h35.86a26.69 26.69 0 0 0 26.71-26.71v-6z" transform="translate(-242.22 -318.72)"/></g></symbol>
  <symbol id="arrow" viewBox="0 0 21.825 21.825" width="512" height="512" enable-background="new 0 0 21.825 21.825"><path d="M16.791 13.254c.444-.444 1.143-.444 1.587 0 .429.444.429 1.143 0 1.587l-6.65 6.651c-.206.206-.492.333-.809.333-.317 0-.603-.127-.81-.333l-6.65-6.651c-.444-.444-.444-1.143 0-1.587s1.143-.444 1.587 0l4.746 4.762v-16.905c-.001-.619.507-1.111 1.126-1.111.619 0 1.111.492 1.111 1.111v16.904l4.762-4.761z"/></symbol>
  <symbol id="arrow-team" width="512" height="512" viewBox="0 0 451.846 451.847" enable-background="new 0 0 451.846 451.847"><path d="M345.441 248.292l-194.287 194.281c-12.359 12.365-32.397 12.365-44.75 0-12.354-12.354-12.354-32.391 0-44.744l171.914-171.909-171.909-171.903c-12.354-12.359-12.354-32.394 0-44.748 12.354-12.359 32.391-12.359 44.75 0l194.287 194.284c6.177 6.18 9.262 14.271 9.262 22.366 0 8.099-3.091 16.196-9.267 22.373z"/></symbol>
</svg>
