<svg xmlns="http://www.w3.org/2000/svg" viewBox="0 0 537.967 537.967" width="512" height="512" enable-background="new 0 0 537.967 537.967"><g fill="#5ed688"><path d="M94.151 323.949l119.867 119.843 18.622-41.626-96.863-96.863zM109.503 373.518c-20.608-20.632-43.685-14.457-51.192 13.73l-20.099 75.02c-7.58 28.139 9.323 45.041 37.486 37.486l75.02-20.099c28.163-7.555 34.338-30.609 13.73-51.216l-54.945-54.921zM530.808 7.159c-29.979-29.979-145.633 36.905-261.021 149.944l-12.955-12.955-68.482 34.241-171.23 34.24-17.12 17.121 177.525 29.592c-6.829 8.669-13.44 17.29-19.542 25.693l38.915 38.915 85.602-85.627 17.12 17.12-85.602 85.627 38.89 38.89c8.403-6.078 16.999-12.665 25.693-19.518l29.592 177.525 17.12-17.121 34.241-171.229 34.265-68.482-12.955-12.955c113.039-115.412 179.923-231.042 149.944-261.021zm-119.868 68.506c14.166-14.19 37.171-14.19 51.361 0 14.19 14.166 14.19 37.171 0 51.361-14.19 14.166-37.195 14.166-51.361 0-14.19-14.19-14.19-37.194 0-51.361z"/></g></svg>
