<svg xmlns="http://www.w3.org/2000/svg" viewBox="0 0 512.001 512.001" width="512" height="512"><path d="M256 74.957c-33.388 0-60.552 27.164-60.552 60.552s27.163 60.552 60.552 60.552 60.552-27.164 60.552-60.552c.001-33.388-27.163-60.552-60.552-60.552zm14.996 60.554c0 8.282-6.714 14.996-14.996 14.996s-14.996-6.714-14.996-14.996v-27.926c0-8.282 6.714-14.996 14.996-14.996s14.996 6.714 14.996 14.996v27.926zM256 0c-74.72 0-135.51 60.79-135.51 135.511 0 39.946 17.379 75.906 44.967 100.73v54.533c0 20.075 16.332 36.407 36.407 36.407h39.141v33.452c0 8.282 6.714 14.996 14.996 14.996 29.33 0 53.191 23.861 53.191 53.19s-23.862 53.191-53.192 53.191c-29.328 0-53.19-23.861-53.19-53.19 0-8.282-6.714-14.996-14.996-14.996s-14.996 6.714-14.996 14.996c0 45.867 37.315 83.182 83.182 83.182 45.867 0 83.182-37.315 83.182-83.182 0-40.745-29.456-74.718-68.186-81.802v-19.836h39.141c20.075 0 36.407-16.332 36.407-36.407v-54.535c27.588-24.824 44.967-60.784 44.967-100.73 0-74.72-60.79-135.51-135.511-135.51zm0 226.054c-49.925 0-90.544-40.618-90.544-90.544s40.618-90.543 90.544-90.543c49.927 0 90.544 40.618 90.544 90.544s-40.618 90.543-90.544 90.543z" fill="#5ed688"/></svg>
