<svg xmlns="http://www.w3.org/2000/svg" viewBox="0 0 407.392 407.392" width="512" height="512"><g fill="#5ed688"><path d="M402.016 322.382l-88.896-88.902c12.424-17.657 19.143-38.649 19.143-60.69 0-28.254-10.998-54.816-30.978-74.795-19.979-19.979-46.545-30.982-74.795-30.982-2.074 0-4.137.066-6.19.184v30.658c2.05-.166 4.111-.27 6.19-.27 20.09 0 38.971 7.823 53.176 22.028 14.207 14.206 22.029 33.091 22.029 53.177 0 20.09-7.822 38.976-22.029 53.177-14.205 14.206-33.086 22.029-53.176 22.029-20.092 0-38.973-7.823-53.178-22.029-4.686-4.684-8.66-9.885-11.905-15.463-3.989 2.305-8.61 3.635-13.54 3.635-9.436 0-17.762-4.836-22.632-12.16l-.327.462c4.904 16.888 14.006 32.365 26.787 45.145 19.979 19.98 46.543 30.982 74.795 30.982 22.035 0 43.033-6.723 60.684-19.147l88.906 88.903c3.58 3.583 8.273 5.373 12.973 5.373 4.693 0 9.385-1.79 12.965-5.373 7.166-7.165 7.166-18.78-.002-25.942zM102.602 135.172c-6.662 0-12.07 5.404-12.07 12.071v39.736c0 6.666 5.408 12.071 12.07 12.071 6.67 0 12.07-5.405 12.07-12.071v-39.736c0-6.666-5.401-12.071-12.07-12.071zM12.07 135.172c-6.66 0-12.07 5.404-12.07 12.071v39.736c0 6.666 5.41 12.071 12.07 12.071 6.67 0 12.07-5.405 12.07-12.071v-39.736c.001-6.666-5.4-12.071-12.07-12.071zM57.336 85.381c-6.662 0-12.072 5.405-12.072 12.071v89.527c0 6.666 5.41 12.071 12.072 12.071 6.67 0 12.07-5.405 12.07-12.071v-89.527c0-6.666-5.4-12.071-12.07-12.071zM193.139 199.05c6.662 0 12.07-5.405 12.07-12.071v-121.213c0-6.666-5.408-12.07-12.07-12.07-6.67 0-12.078 5.404-12.078 12.07v121.213c0 6.666 5.408 12.071 12.078 12.071zM147.865 199.05c6.67 0 12.072-5.405 12.072-12.071v-89.527c0-6.666-5.402-12.071-12.072-12.071-6.66 0-12.07 5.405-12.07 12.071v89.527c0 6.666 5.41 12.071 12.07 12.071z"/></g></svg>
