<svg xmlns="http://www.w3.org/2000/svg" width="19" height="19" viewBox="0 0 291.643 291.642" enable-background="new 0 0 291.643 291.642"><g fill="#5ed688"><path d="M19.403 198.312h59.608l-12.873 74.906c-1.473 8.575 4.28 16.715 12.852 18.19.901.161 1.799.233 2.685.233 7.529 0 14.188-5.416 15.503-13.08l13.792-80.25h69.105l13.8 80.25c1.314 7.664 7.974 13.08 15.503 13.08.886 0 1.781-.072 2.688-.233 8.569-1.476 14.322-9.615 12.847-18.19l-12.873-74.906h60.19c9.668 0 17.502-7.835 17.502-17.492v-163.323c-.001-9.665-7.83-17.497-17.503-17.497h-252.826c-9.662 0-17.492 7.832-17.492 17.497v163.323c0 9.657 7.824 17.492 17.492 17.492zm13.261-165.643h223.979v129.484h-223.979v-129.484zM200.647 63.018c-8.357 0-15.151 6.793-15.151 15.146 0 1.914.394 3.726 1.046 5.411l-27.49 13.347-46.587-8.287c2.079-2.975 3.309-6.574 3.309-10.471 0-10.133-8.244-18.374-18.372-18.374s-18.372 8.246-18.372 18.374c0 7.115 4.108 13.233 10.048 16.283l-11.625 17.852-.168-.016c-5.468 0-9.901 4.432-9.901 9.9 0 5.463 4.433 9.9 9.901 9.9 5.465 0 9.898-4.433 9.898-9.9 0-1.483-.35-2.879-.942-4.143l13.665-20.974 46.533 8.277c-1.093 2.087-1.771 4.427-1.771 6.944 0 8.353 6.788 15.151 15.146 15.151 8.348 0 15.142-6.794 15.142-15.151 0-3.694-1.388-7.034-3.594-9.665l22.551-10.949c2.035 1.018 4.292 1.645 6.721 1.645 8.348 0 15.136-6.794 15.136-15.149.018-8.357-6.781-15.151-15.123-15.151zm-103.241 23.019c-4.337 0-7.868-3.537-7.868-7.874 0-4.344 3.531-7.876 7.868-7.876s7.873 3.537 7.873 7.876c0 4.337-3.536 7.874-7.873 7.874zm62.406 30.89c-2.558 0-4.64-2.082-4.64-4.645 0-2.561 2.082-4.645 4.64-4.645 2.563 0 4.65 2.084 4.65 4.645.001 2.564-2.086 4.645-4.65 4.645zm40.835-34.118c-2.568 0-4.655-2.084-4.655-4.65 0-2.563 2.087-4.647 4.655-4.647 2.553 0 4.64 2.084 4.64 4.647 0 2.565-2.081 4.65-4.64 4.65z"/></g></svg>