<svg xmlns="http://www.w3.org/2000/svg" viewBox="0 0 511.999 511.999" width="512" height="512"><circle cx="80.161" cy="147.209" r="17.177" fill="#5ed688"/><circle cx="137.418" cy="147.209" r="17.177" fill="#5ed688"/><circle cx="194.676" cy="147.209" r="17.177" fill="#5ed688"/><path fill="#5ed688" d="M85.886 255.998h114.515v34.355h-114.515zM85.886 324.707h114.515v34.355h-114.515zM494.07 182.673c-12.292-13.095-28.951-20.463-46.908-20.747l-.553.005v-83.43h-446.609v354.997h446.609v-113.303l37.362-37.362 8.653-8.653c25.263-25.263 25.899-65.458 1.446-91.507zm-459.715-69.818h377.9v58.429c-4.536 2.738-8.779 6.041-12.632 9.895l-.385.385h-364.883v-68.709zm206.127 286.288h-206.127v-183.224h330.528l-40.08 40.08h-78.594v34.355h44.359l-50.084 50.149v58.64zm171.773 0h-44.593l44.593-44.594v44.594zm-44.505-48.673l-48.674 48.674h-44.24v-44.423l118.302-118.457 43.004 45.813-68.392 68.393zm100.58-100.581l-7.882 7.883-43.012-45.822 6.478-6.478c6.065-6.065 14.109-9.293 22.705-9.196 8.576.136 16.533 3.654 22.403 9.909 11.678 12.441 11.374 31.637-.692 43.704z"/></svg>
