<svg xmlns="http://www.w3.org/2000/svg" width="132" height="69" viewBox="0 0 132 69"><g fill="#363636"><path d="M12.052.258c-5.545.487-10.214 1.593-11.477 2.672-.723.616-.723.616-.232 1.156.645.72 3.713 1.645 7.248 2.236 3.998.668 12.51.693 13.723.051 1.212-.668 1.624-1.414 1.624-2.981 0-1.619-.619-2.416-2.218-2.853-1.446-.386-5.778-.54-8.668-.282zM25.774.488c-.129.283-.258 2.108-.258 4.112 0 4.061.155 3.778-2.192 3.933l-1.031.077-.129 2.544-.129 2.544-1.187.283c-2.579.668-3.999 2.595-3.792 5.294.128 1.927 1.031 3.341 2.579 4.087 1.109.513 1.47.538 11.246.538 5.545 0 10.137.079 10.189.181.051.128-1.109 9.407-2.58 20.639-1.445 11.231-2.683 20.997-2.709 21.666-.051 1.617.826 2.621 2.348 2.621 1.237 0 2.012-.642 2.321-1.901.129-.514 1.496-10.333 3.018-21.821 1.522-11.463 2.863-20.869 2.94-20.869.103 0 1.083 1.413 2.192 3.136 2.94 4.626 2.399 4.317 7.635 4.317h4.358v5.63l-5.133.077c-4.72.077-5.21.127-5.881.615-1.573 1.157-1.625 1.415-1.625 10.977 0 9.534.026 9.792 1.522 11.05l.851.695h31.366l.851-.695c1.496-1.258 1.521-1.516 1.521-11.05 0-9.562-.051-9.819-1.623-10.977-.671-.488-1.161-.538-5.882-.615l-5.132-.077v-5.63h4.359c5.234 0 4.693.309 7.634-4.317 1.11-1.723 2.09-3.136 2.193-3.136.076 0 1.419 9.406 2.94 20.869 1.522 11.488 2.89 21.308 3.019 21.821.31 1.26 1.082 1.901 2.321 1.901 1.522 0 2.399-1.004 2.347-2.621-.025-.669-1.264-10.436-2.709-21.666-1.469-11.231-2.631-20.51-2.578-20.639.051-.102 4.642-.181 10.19-.181 9.775 0 10.136-.025 11.244-.538 1.548-.746 2.45-2.16 2.579-4.087.207-2.699-1.211-4.627-3.791-5.294l-1.188-.283-.127-2.544-.129-2.544-1.032-.077c-2.347-.155-2.193.128-2.193-3.933 0-2.004-.128-3.829-.257-4.112-.206-.36-.543-.488-1.367-.488-.619 0-1.238.128-1.42.309-.206.206-.31 1.465-.31 3.932 0 2.467-.102 3.727-.31 3.932-.18.18-.901.308-1.649.308-1.626 0-1.651.052-1.651 3.11v2.287h-67.064v-2.287c0-3.058-.025-3.11-1.65-3.11-.749 0-1.47-.128-1.65-.308-.208-.205-.31-1.465-.31-3.932 0-2.467-.103-3.727-.31-3.932-.181-.18-.8-.309-1.419-.309-.825 0-1.16.128-1.367.488zm42.843 40.12c2.889.898 5.392 3.393 6.166 6.168.439 1.543.31 4.216-.284 5.783-.696 1.875-2.685 4.01-4.565 4.936-1.29.642-1.754.719-3.921.719s-2.631-.077-3.92-.719c-1.884-.926-3.869-3.061-4.566-4.936-.593-1.567-.723-4.24-.284-5.783.748-2.724 3.249-5.27 6.062-6.168 2.012-.643 3.3-.643 5.313 0zM63.794 44.438c-2.037.926-3.507 3.649-3.069 5.731.774 3.677 4.823 5.553 7.996 3.702 1.985-1.158 2.991-3.547 2.451-5.783-.568-2.391-2.734-4.138-5.159-4.138-.646 0-1.626.232-2.219.488zM36.092.154c-3.92.668-4.513 1.131-4.513 3.444 0 1.825.464 2.416 2.268 2.956 1.55.462 7.172.514 10.5.128 6.861-.822 11.322-2.544 9.699-3.752-1.265-.9-4.902-1.877-9.054-2.39-2.476-.308-7.996-.54-8.899-.386zM89.484.258c-6.319.59-11.864 2.081-11.864 3.186 0 1.722 7.841 3.47 15.63 3.496 5.804 0 7.196-.642 7.196-3.341 0-1.824-.619-2.622-2.373-3.084-1.649-.412-5.675-.514-8.589-.256zM112.776.283c-1.78.231-3.019.771-3.431 1.491-.387.771-.31 2.904.154 3.572.928 1.311 1.652 1.465 7.068 1.465 3.661 0 5.802-.129 7.866-.488 3.534-.591 6.604-1.517 7.248-2.236.49-.54.49-.54-.232-1.156-1.341-1.131-5.958-2.185-11.916-2.672-3.481-.283-4.488-.283-6.758.025z"/></g></svg>