<svg xmlns="http://www.w3.org/2000/svg" width="71" height="87" viewBox="0 0 71 87"><g fill="#363636"><path d="M53.349 1.49c0-.736-.578-1.49-1.311-1.49h-42.985c-.733 0-1.381.754-1.381 1.49v3.522h45.676v-3.522zM54.202 81.809h-9.597v-10.383h-6.958v2.507h-18.873c-.537-1.254-1.757-2.148-3.181-2.148h-12.034c-1.917-.001-3.559 1.602-3.559 3.526v3.018c0 1.924 1.642 3.48 3.559 3.48h12.035c1.511 0 2.792-.896 3.269-2.326h18.785v2.326h-9.518c-.533 0-1.01.437-1.01.972v3.172c0 .535.478 1.048 1.01 1.048h26.072c.533 0 .93-.513.93-1.048v-3.173c0-.535-.397-.971-.93-.971zM60.666 12.39c-.861-2.937-3.567-5.05-6.771-5.05h-46.747c-3.898 0-7.148 3.109-7.148 7.021v46.9c0 3.912 3.25 7.121 7.148 7.121h46.747c3.898 0 7.126-3.209 7.126-7.121v-10.346c6.066-4.204 10.001-11.211 10.001-19.164-.001-8.079-4.132-15.181-10.356-19.361zm-48.428 49.761c-3.259 0-5.901-2.65-5.901-5.921 0-3.27 2.642-5.922 5.901-5.922s5.902 2.652 5.902 5.922c0 3.271-2.643 5.921-5.902 5.921zm5.961-32.605c0 .786-.635 1.422-1.418 1.422h-8.94c-.783 0-1.418-.637-1.418-1.422v-14.16c0-.786.635-1.423 1.418-1.423h8.939c.783 0 1.418.637 1.418 1.423v14.16zm29.563 22.312c-11.076 0-20.057-9.01-20.057-20.123s8.98-20.124 20.057-20.124c11.077 0 20.058 9.01 20.058 20.124s-8.981 20.123-20.058 20.123z"/><ellipse cx="47.762" cy="31.735" rx="12.188" ry="12.229"/><circle cx="31.562" cy="31.736" r="1.435"/><circle cx="63.963" cy="31.736" r="1.435"/><circle cx="39.109" cy="17.994" r="1.435"/><ellipse cx="56.415" cy="45.476" rx="1.43" ry="1.436"/><circle cx="55.697" cy="17.565" r="1.435"/><circle cx="39.828" cy="45.906" r="1.435"/></g></svg>